# xmcd
#
# Track frame offsets:
#       150
#       11322
#       21275
#       35132
#       45857
#       56267
#       65597
#       76462
#       87135
#       98752
#       110052
#       120472
#       131982
#       143537
#       153945
#       166309
#       178152
#       190747
#       201850
#       212940
#       221847
#       232162
#       246552
#       258195
#
# Disc length: 3577 seconds
#
# Revision: 0
# Processed by: cddbd v1.4PL0 Copyright (c) Steve Scherf et al.
# Submitted via: WhereIsIt 3.26
#
DISCID=560df718
DTITLE=Patsy Cline - The Four Star Recordings Volume 1
DYEAR=1900
DGENRE=
TTITLE0=hidin' out
TTITLE1=turn the cards slowly
TTITLE2=a church a courtroom and then goodbye
TTITLE3=honkytonk merry-go-round
TTITLE4=I love you honey
TTITLE5=come on in
TTITLE6=I cried all the way to the altar
TTITLE7=stop look and listen
TTITLE8=I've loved and lost again
TTITLE9=dear god
TTITLE10=he will do for you
TTITLE11=the heart you break may be your own
TTITLE12=walkin' after midnight
TTITLE13=pick me up on your way down
TTITLE14=a poor man's roses
TTITLE15=today tomorrow and forever
TTITLE16=fingerprints
TTITLE17=a stranger in my arms
TTITLE18=don't ever leave me
TTITLE19=try again
TTITLE20=too many secrets
TTITLE21=then you'll know
TTITLE22=three cigarettes in an ashtray
TTITLE23=in care of the blues
EXTD=
EXTT0=
EXTT1=
EXTT2=
EXTT3=
EXTT4=
EXTT5=
EXTT6=
EXTT7=
EXTT8=
EXTT9=
EXTT10=
EXTT11=
EXTT12=
EXTT13=
EXTT14=
EXTT15=
EXTT16=
EXTT17=
EXTT18=
EXTT19=
EXTT20=
EXTT21=
EXTT22=
EXTT23=
PLAYORDER=
